<?xml version="1.0" standalone="no"?><!DOCTYPE svg PUBLIC "-//W3C//DTD SVG 1.1//EN" "http://www.w3.org/Graphics/SVG/1.1/DTD/svg11.dtd"><svg t="1694085899395" class="icon" viewBox="0 0 1024 1024" version="1.1" xmlns="http://www.w3.org/2000/svg" p-id="6624" xmlns:xlink="http://www.w3.org/1999/xlink" width="200" height="200"><path d="M853.312 0 170.688 0C76.8 0 0 76.8 0 170.656l0 682.656C0 947.2 76.8 1024 170.688 1024l682.624 0C947.264 1024 1024 947.2 1024 853.312L1024 170.656C1024 76.8 947.264 0 853.312 0zM256 256l512 0c9.152 0 18.016 1.952 26.144 5.664L512 590.816 229.856 261.664C237.984 257.952 246.848 256 256 256zM192 704 192 320c0-1.344 0.064-2.688 0.128-4l187.648 218.944L194.208 720.544C192.768 715.2 192 709.664 192 704zM768 768 256 768c-5.664 0-11.2-0.768-16.544-2.208l182.112-182.112L512 689.184l90.432-105.504 182.112 182.112C779.2 767.232 773.664 768 768 768zM832 704c0 5.664-0.768 11.2-2.208 16.544l-185.6-185.6L831.872 316c0.096 1.344 0.128 2.656 0.128 4L832 704z" fill="#ea9518" p-id="6625"></path></svg>