<?xml version="1.0" standalone="no"?><!DOCTYPE svg PUBLIC "-//W3C//DTD SVG 1.1//EN" "http://www.w3.org/Graphics/SVG/1.1/DTD/svg11.dtd"><svg t="1694085745493" class="icon" viewBox="0 0 1024 1024" version="1.1" xmlns="http://www.w3.org/2000/svg" p-id="1460" xmlns:xlink="http://www.w3.org/1999/xlink" width="200" height="200"><path d="M679.97 745.96l83.99-394.93q5-26-6.5-37-11.5-10.99-29.5-3L234.05 500q-16 6-22 14.5t-2 15.5q4 7 18 10.99l126.98 39 292.95-183.97q11.99-8 18.99-3 4 3-3 8L427.01 615.98l-8.99 129.98q12.99 0 24.99-13L505 672.97l127.98 95.99q36.99 19.99 46.99-23zM1023.91 512q0 103.98-40.99 197.97T874.44 873.95q-67.49 69.99-163.98 108.98-96.49 38.99-198.47 40.99t-198.47-40.99q-96.48-42.99-163.97-108.48-67.49-65.49-108.48-163.98Q0.08 611.98 0.08 511.5t40.99-198.47q40.99-97.98 108.48-163.47 67.49-65.49 163.97-108.48Q410.01-1.91 511.99 0.09t198.47 40.49q96.49 38.49 163.98 108.48 67.49 69.99 108.48 163.97 40.99 93.99 40.99 198.97z" fill="#1296db" p-id="1461"></path></svg>